<svg width="1024" height="1024" xmlns="http://www.w3.org/2000/svg"><path style="fill:#fefcfc" d="M475 751.347c-110.45-1.309-198.382-6.69-226.694-13.871-28.76-7.296-51.345-28.28-60.246-55.976-14.612-45.472-20.054-172.446-11.507-268.5 5.237-58.859 11.904-82.03 29.016-100.845 11.774-12.945 25.733-21.317 42.737-25.63 33.262-8.439 134.44-13.692 263.694-13.692 129.254 0 230.432 5.253 263.694 13.691 28.76 7.296 51.345 28.28 60.246 55.976 14.612 45.472 20.054 172.446 11.507 268.5-5.237 58.859-11.904 82.03-29.016 100.845-16.64 18.296-33.452 25.673-68.54 30.075-48.81 6.122-178.476 10.569-274.891 9.427zm8.26-161.668c21.582-12.277 54.457-30.984 73.056-41.573 18.599-10.589 39.974-22.755 47.5-27.036 7.526-4.282 13.684-8.358 13.684-9.06 0-.98-167.655-97.484-173.25-99.724-.995-.398-1.25 19.921-1.25 99.607 0 55.059.23 100.107.51 100.107.281 0 18.169-10.044 39.75-22.321z"/><path style="fill:#fe0000" d="M0 512V0h1024v1024H0Zm611 237.942c87.248-2.332 140.693-6.378 164.694-12.466 28.76-7.296 51.345-28.28 60.246-55.976 14.612-45.472 20.054-172.446 11.507-268.5-5.237-58.859-11.904-82.03-29.016-100.845-11.774-12.945-25.733-21.317-42.737-25.63-33.262-8.439-134.44-13.692-263.694-13.692-129.254 0-230.432 5.253-263.694 13.691-28.76 7.296-51.345 28.28-60.246 55.976-14.612 45.472-20.054 172.446-11.507 268.5 5.237 58.859 11.904 82.03 29.016 100.845 11.774 12.945 25.733 21.317 42.737 25.63C291.48 748.429 456.042 754.085 611 749.943ZM443 511.893c0-79.686.255-100.005 1.25-99.607 5.595 2.24 173.25 98.744 173.25 99.724 0 .702-6.158 4.778-13.684 9.06-7.526 4.281-28.901 16.447-47.5 27.036C464.675 600.278 443.981 612 443.51 612c-.28 0-.51-45.048-.51-100.107Z"/></svg>